<svg width="20" height="16" viewBox="0 0 20 16" fill="none" xmlns="http://www.w3.org/2000/svg">
<path d="M0 2C0 0.9 0.9 0 2 0H17C17.2652 0 17.5196 0.105357 17.7071 0.292893C17.8946 0.48043 18 0.734784 18 1V2H2V3H19C19.2652 3 19.5196 3.10536 19.7071 3.29289C19.8946 3.48043 20 3.73478 20 4V14C20 14.5304 19.7893 15.0391 19.4142 15.4142C19.0391 15.7893 18.5304 16 18 16H2C1.46957 16 0.960859 15.7893 0.585786 15.4142C0.210714 15.0391 0 14.5304 0 14V2ZM16.5 11C16.8978 11 17.2794 10.842 17.5607 10.5607C17.842 10.2794 18 9.89782 18 9.5C18 9.10218 17.842 8.72064 17.5607 8.43934C17.2794 8.15804 16.8978 8 16.5 8C16.1022 8 15.7206 8.15804 15.4393 8.43934C15.158 8.72064 15 9.10218 15 9.5C15 9.89782 15.158 10.2794 15.4393 10.5607C15.7206 10.842 16.1022 11 16.5 11Z" fill="#014E7A"/>
</svg>
